<svg width="1200" height="320" viewBox="0 0 1200 320" fill="none" xmlns="http://www.w3.org/2000/svg" role="img" aria-labelledby="title desc">
  <title id="title">Manu Soler</title>
  <desc id="desc">Sistemas, DevOps e infraestructura</desc>

  <defs>
    <linearGradient id="background" x1="40" y1="24" x2="1160" y2="296" gradientUnits="userSpaceOnUse">
      <stop stop-color="#0B1220"/>
      <stop offset="0.55" stop-color="#101A31"/>
      <stop offset="1" stop-color="#17112B"/>
    </linearGradient>
    <linearGradient id="accent" x1="220" y1="74" x2="870" y2="240" gradientUnits="userSpaceOnUse">
      <stop stop-color="#2DD4BF"/>
      <stop offset="0.48" stop-color="#60A5FA"/>
      <stop offset="1" stop-color="#A78BFA"/>
    </linearGradient>
    <linearGradient id="orbit" x1="870" y1="62" x2="1140" y2="260" gradientUnits="userSpaceOnUse">
      <stop stop-color="#2DD4BF" stop-opacity="0.9"/>
      <stop offset="1" stop-color="#A78BFA" stop-opacity="0.15"/>
    </linearGradient>
    <pattern id="grid" width="32" height="32" patternUnits="userSpaceOnUse">
      <path d="M32 0H0V32" stroke="#94A3B8" stroke-opacity="0.07"/>
    </pattern>
    <filter id="glow" x="-60%" y="-60%" width="220%" height="220%">
      <feGaussianBlur stdDeviation="10"/>
    </filter>
  </defs>

  <rect width="1200" height="320" rx="24" fill="url(#background)"/>
  <rect width="1200" height="320" rx="24" fill="url(#grid)"/>

  <circle cx="1010" cy="157" r="122" stroke="url(#orbit)" stroke-width="1.5"/>
  <circle cx="1010" cy="157" r="80" stroke="#60A5FA" stroke-opacity="0.23"/>
  <path d="M882 157H1138M1010 29V285" stroke="#94A3B8" stroke-opacity="0.09"/>
  <circle cx="1090" cy="157" r="8" fill="#A78BFA"/>
  <circle cx="1090" cy="157" r="18" fill="#A78BFA" fill-opacity="0.22" filter="url(#glow)"/>
  <circle cx="949" cy="80" r="6" fill="#2DD4BF"/>
  <circle cx="949" cy="80" r="16" fill="#2DD4BF" fill-opacity="0.24" filter="url(#glow)"/>
  <path d="M930 204L971 228L1012 204L1053 228L1094 204" stroke="url(#accent)" stroke-width="2" stroke-linecap="round" stroke-linejoin="round" opacity="0.75"/>
  <circle cx="930" cy="204" r="4" fill="#2DD4BF"/>
  <circle cx="971" cy="228" r="4" fill="#5EA7FA"/>
  <circle cx="1012" cy="204" r="4" fill="#7C9CFB"/>
  <circle cx="1053" cy="228" r="4" fill="#918FFB"/>
  <circle cx="1094" cy="204" r="4" fill="#A78BFA"/>

  <rect x="72" y="66" width="56" height="5" rx="2.5" fill="url(#accent)"/>
  <text x="72" y="157" fill="#F8FAFC" font-family="Segoe UI, Inter, Arial, sans-serif" font-size="72" font-weight="700" letter-spacing="-2">Manu Soler</text>
  <text x="76" y="207" fill="#CBD5E1" font-family="Segoe UI, Inter, Arial, sans-serif" font-size="23" font-weight="400" letter-spacing="1.2">SISTEMAS  ·  DEVOPS  ·  INFRAESTRUCTURA</text>
  <text x="76" y="250" fill="url(#accent)" font-family="Consolas, SFMono-Regular, monospace" font-size="16">learning by building_</text>

  <rect x="0.75" y="0.75" width="1198.5" height="318.5" rx="23.25" stroke="#94A3B8" stroke-opacity="0.16" stroke-width="1.5"/>
</svg>
